<mxfile modified="2022-01-05T17:58:38.065Z" host="app.diagrams.net" agent="5.0 (Windows NT 10.0; Win64; x64) AppleWebKit/537.36 (KHTML, like Gecko) Chrome/96.0.4664.110 Safari/537.36" etag="jIcv2YvRmfIyrbdlVpCO" version="16.2.2" type="github">
  <diagram id="f106602c-feb2-e66a-4537-3a34d633f6aa" name="Page-1">
    <mxGraphModel dx="1202" dy="513" grid="1" gridSize="10" guides="1" tooltips="1" connect="1" arrows="1" fold="1" page="1" pageScale="1" pageWidth="1169" pageHeight="827" background="none" math="0" shadow="0">
      <root>
        <mxCell id="0" />
        <mxCell id="1" parent="0" />
        <mxCell id="qdrp4upQD0lTAU22z502-738" style="edgeStyle=orthogonalEdgeStyle;rounded=0;orthogonalLoop=1;jettySize=auto;html=1;entryX=0;entryY=0.5;entryDx=0;entryDy=0;" edge="1" parent="1" source="705" target="qdrp4upQD0lTAU22z502-726">
          <mxGeometry relative="1" as="geometry" />
        </mxCell>
        <mxCell id="705" value="Database" style="rounded=1;absoluteArcSize=1;arcSize=2;html=1;strokeColor=none;gradientColor=none;shadow=0;dashed=0;strokeColor=none;fontSize=12;fontColor=#9E9E9E;align=center;verticalAlign=top;spacing=10;spacingTop=-4;fillColor=#FFF8E1;" parent="1" vertex="1">
          <mxGeometry x="230" y="120" width="90" height="100" as="geometry" />
        </mxCell>
        <mxCell id="2" value="Architecture: Discount Client Prediction &amp;amp; Product Recommendation" style="fillColor=#4DA1F5;strokeColor=none;shadow=1;gradientColor=none;fontSize=14;align=left;spacingLeft=50;fontColor=#ffffff;html=1;" parent="1" vertex="1">
          <mxGeometry x="230" y="40" width="800" height="40" as="geometry" />
        </mxCell>
        <mxCell id="qdrp4upQD0lTAU22z502-719" value="" style="sketch=0;outlineConnect=0;fontColor=#232F3E;gradientColor=none;fillColor=#2E27AD;strokeColor=none;dashed=0;verticalLabelPosition=bottom;verticalAlign=top;align=center;html=1;fontSize=12;fontStyle=0;aspect=fixed;pointerEvents=1;shape=mxgraph.aws4.rds_mysql_instance;" vertex="1" parent="1">
          <mxGeometry x="250" y="150" width="50" height="50" as="geometry" />
        </mxCell>
        <mxCell id="qdrp4upQD0lTAU22z502-739" style="edgeStyle=orthogonalEdgeStyle;rounded=0;orthogonalLoop=1;jettySize=auto;html=1;entryX=0;entryY=0.5;entryDx=0;entryDy=0;" edge="1" parent="1" source="qdrp4upQD0lTAU22z502-726" target="qdrp4upQD0lTAU22z502-728">
          <mxGeometry relative="1" as="geometry" />
        </mxCell>
        <mxCell id="qdrp4upQD0lTAU22z502-726" value="" style="strokeColor=#dddddd;shadow=1;strokeWidth=1;rounded=1;absoluteArcSize=1;arcSize=2;" vertex="1" parent="1">
          <mxGeometry x="350" y="140" width="210" height="60" as="geometry" />
        </mxCell>
        <mxCell id="qdrp4upQD0lTAU22z502-727" value="&lt;font color=&quot;#000000&quot;&gt;Data processing&lt;/font&gt;&lt;br&gt;Cloud Dataprep / Dataflow" style="sketch=0;dashed=0;connectable=0;html=1;fillColor=#5184F3;strokeColor=none;shape=mxgraph.gcp2.hexIcon;prIcon=cloud_dataprep;part=1;labelPosition=right;verticalLabelPosition=middle;align=left;verticalAlign=middle;spacingLeft=5;fontColor=#999999;fontSize=12;" vertex="1" parent="qdrp4upQD0lTAU22z502-726">
          <mxGeometry y="0.5" width="44" height="39" relative="1" as="geometry">
            <mxPoint x="5" y="-19.5" as="offset" />
          </mxGeometry>
        </mxCell>
        <mxCell id="qdrp4upQD0lTAU22z502-740" style="edgeStyle=orthogonalEdgeStyle;rounded=0;orthogonalLoop=1;jettySize=auto;html=1;entryX=0;entryY=0.5;entryDx=0;entryDy=0;" edge="1" parent="1" source="qdrp4upQD0lTAU22z502-728" target="qdrp4upQD0lTAU22z502-732">
          <mxGeometry relative="1" as="geometry" />
        </mxCell>
        <mxCell id="qdrp4upQD0lTAU22z502-741" style="edgeStyle=orthogonalEdgeStyle;rounded=0;orthogonalLoop=1;jettySize=auto;html=1;entryX=0.5;entryY=0;entryDx=0;entryDy=0;" edge="1" parent="1" source="qdrp4upQD0lTAU22z502-728" target="qdrp4upQD0lTAU22z502-734">
          <mxGeometry relative="1" as="geometry">
            <Array as="points">
              <mxPoint x="682" y="220" />
              <mxPoint x="920" y="220" />
            </Array>
          </mxGeometry>
        </mxCell>
        <mxCell id="qdrp4upQD0lTAU22z502-728" value="" style="strokeColor=#dddddd;shadow=1;strokeWidth=1;rounded=1;absoluteArcSize=1;arcSize=2;" vertex="1" parent="1">
          <mxGeometry x="600" y="140" width="165" height="60" as="geometry" />
        </mxCell>
        <mxCell id="qdrp4upQD0lTAU22z502-729" value="&lt;font color=&quot;#000000&quot;&gt;Data warehousing&lt;/font&gt;&lt;br&gt;BigQuery" style="sketch=0;dashed=0;connectable=0;html=1;fillColor=#5184F3;strokeColor=none;shape=mxgraph.gcp2.hexIcon;prIcon=bigquery;part=1;labelPosition=right;verticalLabelPosition=middle;align=left;verticalAlign=middle;spacingLeft=5;fontColor=#999999;fontSize=12;" vertex="1" parent="qdrp4upQD0lTAU22z502-728">
          <mxGeometry y="0.5" width="44" height="39" relative="1" as="geometry">
            <mxPoint x="5" y="-19.5" as="offset" />
          </mxGeometry>
        </mxCell>
        <mxCell id="qdrp4upQD0lTAU22z502-732" value="" style="strokeColor=#dddddd;shadow=1;strokeWidth=1;rounded=1;absoluteArcSize=1;arcSize=2;" vertex="1" parent="1">
          <mxGeometry x="810" y="140" width="220" height="60" as="geometry" />
        </mxCell>
        <mxCell id="qdrp4upQD0lTAU22z502-733" value="&lt;font color=&quot;#000000&quot;&gt;Research &amp;amp; Development&lt;/font&gt;&lt;br&gt;AI Platform Notebook" style="sketch=0;dashed=0;connectable=0;html=1;fillColor=#5184F3;strokeColor=none;shape=mxgraph.gcp2.hexIcon;prIcon=cloud_machine_learning;part=1;labelPosition=right;verticalLabelPosition=middle;align=left;verticalAlign=middle;spacingLeft=5;fontColor=#999999;fontSize=12;" vertex="1" parent="qdrp4upQD0lTAU22z502-732">
          <mxGeometry y="0.5" width="44" height="39" relative="1" as="geometry">
            <mxPoint x="5" y="-19.5" as="offset" />
          </mxGeometry>
        </mxCell>
        <mxCell id="qdrp4upQD0lTAU22z502-766" style="edgeStyle=orthogonalEdgeStyle;rounded=0;orthogonalLoop=1;jettySize=auto;html=1;entryX=1;entryY=0.5;entryDx=0;entryDy=0;" edge="1" parent="1" source="qdrp4upQD0lTAU22z502-734" target="qdrp4upQD0lTAU22z502-764">
          <mxGeometry relative="1" as="geometry" />
        </mxCell>
        <mxCell id="qdrp4upQD0lTAU22z502-734" value="" style="strokeColor=#dddddd;shadow=1;strokeWidth=1;rounded=1;absoluteArcSize=1;arcSize=2;" vertex="1" parent="1">
          <mxGeometry x="810" y="240" width="220" height="60" as="geometry" />
        </mxCell>
        <mxCell id="qdrp4upQD0lTAU22z502-735" value="&lt;font color=&quot;#000000&quot;&gt;Prediction / Recommendation&amp;nbsp;&lt;/font&gt;&lt;br&gt;BigQuery ML" style="sketch=0;dashed=0;connectable=0;html=1;fillColor=#5184F3;strokeColor=none;shape=mxgraph.gcp2.hexIcon;prIcon=bigquery;part=1;labelPosition=right;verticalLabelPosition=middle;align=left;verticalAlign=middle;spacingLeft=5;fontColor=#999999;fontSize=12;" vertex="1" parent="qdrp4upQD0lTAU22z502-734">
          <mxGeometry y="0.5" width="44" height="39" relative="1" as="geometry">
            <mxPoint x="5" y="-19.5" as="offset" />
          </mxGeometry>
        </mxCell>
        <mxCell id="qdrp4upQD0lTAU22z502-754" style="edgeStyle=orthogonalEdgeStyle;rounded=0;orthogonalLoop=1;jettySize=auto;html=1;exitX=0.5;exitY=1;exitDx=0;exitDy=0;entryX=0.5;entryY=0;entryDx=0;entryDy=0;" edge="1" parent="1" source="qdrp4upQD0lTAU22z502-742" target="qdrp4upQD0lTAU22z502-744">
          <mxGeometry relative="1" as="geometry" />
        </mxCell>
        <mxCell id="qdrp4upQD0lTAU22z502-742" value="" style="strokeColor=#dddddd;shadow=1;strokeWidth=1;rounded=1;absoluteArcSize=1;arcSize=2;" vertex="1" parent="1">
          <mxGeometry x="377.25" y="290" width="152.5" height="60" as="geometry" />
        </mxCell>
        <mxCell id="qdrp4upQD0lTAU22z502-743" value="&lt;font color=&quot;#000000&quot;&gt;Result retrieving&lt;br&gt;&lt;/font&gt;Cloud Functions" style="sketch=0;dashed=0;connectable=0;html=1;fillColor=#5184F3;strokeColor=none;shape=mxgraph.gcp2.hexIcon;prIcon=cloud_functions;part=1;labelPosition=right;verticalLabelPosition=middle;align=left;verticalAlign=middle;spacingLeft=5;fontColor=#999999;fontSize=12;" vertex="1" parent="qdrp4upQD0lTAU22z502-742">
          <mxGeometry y="0.5" width="44" height="39" relative="1" as="geometry">
            <mxPoint x="5" y="-19.5" as="offset" />
          </mxGeometry>
        </mxCell>
        <mxCell id="qdrp4upQD0lTAU22z502-761" style="edgeStyle=orthogonalEdgeStyle;rounded=0;orthogonalLoop=1;jettySize=auto;html=1;entryX=0;entryY=0.5;entryDx=0;entryDy=0;" edge="1" parent="1" source="qdrp4upQD0lTAU22z502-744" target="qdrp4upQD0lTAU22z502-746">
          <mxGeometry relative="1" as="geometry" />
        </mxCell>
        <mxCell id="qdrp4upQD0lTAU22z502-744" value="" style="strokeColor=#dddddd;shadow=1;strokeWidth=1;rounded=1;absoluteArcSize=1;arcSize=2;" vertex="1" parent="1">
          <mxGeometry x="378.75" y="384" width="151" height="60" as="geometry" />
        </mxCell>
        <mxCell id="qdrp4upQD0lTAU22z502-745" value="&lt;font color=&quot;#000000&quot;&gt;Web application&lt;/font&gt;&lt;br&gt;App Engine" style="sketch=0;dashed=0;connectable=0;html=1;fillColor=#5184F3;strokeColor=none;shape=mxgraph.gcp2.hexIcon;prIcon=app_engine;part=1;labelPosition=right;verticalLabelPosition=middle;align=left;verticalAlign=middle;spacingLeft=5;fontColor=#999999;fontSize=12;" vertex="1" parent="qdrp4upQD0lTAU22z502-744">
          <mxGeometry y="0.5" width="44" height="39" relative="1" as="geometry">
            <mxPoint x="5" y="-19.5" as="offset" />
          </mxGeometry>
        </mxCell>
        <mxCell id="qdrp4upQD0lTAU22z502-762" style="edgeStyle=orthogonalEdgeStyle;rounded=0;orthogonalLoop=1;jettySize=auto;html=1;entryX=0;entryY=0.5;entryDx=0;entryDy=0;" edge="1" parent="1" source="qdrp4upQD0lTAU22z502-746" target="qdrp4upQD0lTAU22z502-749">
          <mxGeometry relative="1" as="geometry" />
        </mxCell>
        <mxCell id="qdrp4upQD0lTAU22z502-746" value="" style="strokeColor=#dddddd;shadow=1;strokeWidth=1;rounded=1;absoluteArcSize=1;arcSize=2;" vertex="1" parent="1">
          <mxGeometry x="600" y="384" width="150" height="60" as="geometry" />
        </mxCell>
        <mxCell id="qdrp4upQD0lTAU22z502-747" value="&lt;font color=&quot;#000000&quot;&gt;Messaging&amp;nbsp;&lt;/font&gt;&lt;br&gt;Cloud Pub/Sub" style="sketch=0;dashed=0;connectable=0;html=1;fillColor=#5184F3;strokeColor=none;shape=mxgraph.gcp2.hexIcon;prIcon=cloud_pubsub;part=1;labelPosition=right;verticalLabelPosition=middle;align=left;verticalAlign=middle;spacingLeft=5;fontColor=#999999;fontSize=12;" vertex="1" parent="qdrp4upQD0lTAU22z502-746">
          <mxGeometry y="0.5" width="44" height="39" relative="1" as="geometry">
            <mxPoint x="5" y="-19.5" as="offset" />
          </mxGeometry>
        </mxCell>
        <mxCell id="qdrp4upQD0lTAU22z502-763" style="edgeStyle=orthogonalEdgeStyle;rounded=0;orthogonalLoop=1;jettySize=auto;html=1;exitX=0.5;exitY=1;exitDx=0;exitDy=0;entryX=0.5;entryY=0;entryDx=0;entryDy=0;" edge="1" parent="1" source="qdrp4upQD0lTAU22z502-749" target="qdrp4upQD0lTAU22z502-751">
          <mxGeometry relative="1" as="geometry" />
        </mxCell>
        <mxCell id="qdrp4upQD0lTAU22z502-749" value="" style="strokeColor=#dddddd;shadow=1;strokeWidth=1;rounded=1;absoluteArcSize=1;arcSize=2;" vertex="1" parent="1">
          <mxGeometry x="810" y="384" width="173.75" height="60" as="geometry" />
        </mxCell>
        <mxCell id="qdrp4upQD0lTAU22z502-750" value="&lt;font color=&quot;#000000&quot;&gt;Real time processing&lt;/font&gt;&lt;br&gt;Cloud Dataflow" style="sketch=0;dashed=0;connectable=0;html=1;fillColor=#5184F3;strokeColor=none;shape=mxgraph.gcp2.hexIcon;prIcon=cloud_dataflow;part=1;labelPosition=right;verticalLabelPosition=middle;align=left;verticalAlign=middle;spacingLeft=5;fontColor=#999999;fontSize=12;" vertex="1" parent="qdrp4upQD0lTAU22z502-749">
          <mxGeometry y="0.5" width="44" height="39" relative="1" as="geometry">
            <mxPoint x="5" y="-19.5" as="offset" />
          </mxGeometry>
        </mxCell>
        <mxCell id="qdrp4upQD0lTAU22z502-751" value="" style="shape=image;verticalLabelPosition=bottom;labelBackgroundColor=default;verticalAlign=top;aspect=fixed;imageAspect=0;image=https://www.digitalnolimit.blog/wp-content/uploads/2019/06/Google-ach%C3%A8te-Looker-pour-pour-26-milliards-de-dollars.png;" vertex="1" parent="1">
          <mxGeometry x="860" y="480" width="90" height="60.06" as="geometry" />
        </mxCell>
        <mxCell id="qdrp4upQD0lTAU22z502-760" style="edgeStyle=orthogonalEdgeStyle;rounded=0;orthogonalLoop=1;jettySize=auto;html=1;entryX=0;entryY=0.5;entryDx=0;entryDy=0;" edge="1" parent="1" source="qdrp4upQD0lTAU22z502-757" target="qdrp4upQD0lTAU22z502-744">
          <mxGeometry relative="1" as="geometry" />
        </mxCell>
        <mxCell id="qdrp4upQD0lTAU22z502-757" value="User" style="rounded=1;absoluteArcSize=1;arcSize=2;html=1;strokeColor=none;gradientColor=none;shadow=0;dashed=0;strokeColor=none;fontSize=12;fontColor=#9E9E9E;align=center;verticalAlign=top;spacing=10;spacingTop=-4;fillColor=#FFF8E1;" vertex="1" parent="1">
          <mxGeometry x="230" y="364" width="90" height="100" as="geometry" />
        </mxCell>
        <mxCell id="qdrp4upQD0lTAU22z502-759" value="" style="shape=image;html=1;verticalAlign=top;verticalLabelPosition=bottom;labelBackgroundColor=#ffffff;imageAspect=0;aspect=fixed;image=https://cdn1.iconfinder.com/data/icons/user-pictures/100/male3-128.png" vertex="1" parent="1">
          <mxGeometry x="243" y="390" width="64" height="64" as="geometry" />
        </mxCell>
        <mxCell id="qdrp4upQD0lTAU22z502-767" style="edgeStyle=orthogonalEdgeStyle;rounded=0;orthogonalLoop=1;jettySize=auto;html=1;entryX=0.5;entryY=0;entryDx=0;entryDy=0;" edge="1" parent="1" source="qdrp4upQD0lTAU22z502-764" target="qdrp4upQD0lTAU22z502-742">
          <mxGeometry relative="1" as="geometry" />
        </mxCell>
        <mxCell id="qdrp4upQD0lTAU22z502-764" value="" style="strokeColor=#dddddd;shadow=1;strokeWidth=1;rounded=1;absoluteArcSize=1;arcSize=2;" vertex="1" parent="1">
          <mxGeometry x="600" y="240" width="165" height="60" as="geometry" />
        </mxCell>
        <mxCell id="qdrp4upQD0lTAU22z502-765" value="&lt;font color=&quot;#000000&quot;&gt;Data warehousing&lt;/font&gt;&lt;br&gt;BigQuery" style="sketch=0;dashed=0;connectable=0;html=1;fillColor=#5184F3;strokeColor=none;shape=mxgraph.gcp2.hexIcon;prIcon=bigquery;part=1;labelPosition=right;verticalLabelPosition=middle;align=left;verticalAlign=middle;spacingLeft=5;fontColor=#999999;fontSize=12;" vertex="1" parent="qdrp4upQD0lTAU22z502-764">
          <mxGeometry y="0.5" width="44" height="39" relative="1" as="geometry">
            <mxPoint x="5" y="-19.5" as="offset" />
          </mxGeometry>
        </mxCell>
      </root>
    </mxGraphModel>
  </diagram>
</mxfile>
